<svg width="100%" viewBox="0 0 680 560" role="img" xmlns="http://www.w3.org/2000/svg" shape-rendering="crispEdges">
<title>ドリームパーク - ジャグラー専門店</title>
<desc>パチンコ店ドリームパーク（ジャグラー専門店）の入口看板。GOGOランプとスロットの7を配したドット絵看板。</desc>

<rect width="680" height="480" fill="#170a3a"/>
<rect y="480" width="680" height="80" fill="#0a0420"/>

<g fill="#fff8dc">
<rect x="74" y="40" width="6" height="6"/><rect x="68" y="46" width="18" height="6"/><rect x="74" y="52" width="6" height="6"/>
<rect x="170" y="20" width="6" height="6"/><rect x="164" y="26" width="18" height="6"/><rect x="170" y="32" width="6" height="6"/>
<rect x="240" y="68" width="6" height="6"/><rect x="234" y="74" width="18" height="6"/><rect x="240" y="80" width="6" height="6"/>
<rect x="450" y="30" width="6" height="6"/><rect x="444" y="36" width="18" height="6"/><rect x="450" y="42" width="6" height="6"/>
<rect x="350" y="56" width="6" height="6"/>
<rect x="120" y="80" width="6" height="6"/>
<rect x="280" y="32" width="6" height="6"/>
<rect x="380" y="20" width="6" height="6"/>
<rect x="530" y="84" width="6" height="6"/>
<rect x="200" y="50" width="6" height="6"/>
<rect x="48" y="78" width="6" height="6"/>
<rect x="416" y="78" width="6" height="6"/>
</g>

<g fill="#fff8dc">
<rect x="582" y="32" width="36" height="6"/>
<rect x="570" y="38" width="48" height="6"/>
<rect x="564" y="44" width="36" height="6"/>
<rect x="558" y="50" width="30" height="6"/>
<rect x="558" y="56" width="24" height="6"/>
<rect x="558" y="62" width="30" height="6"/>
<rect x="564" y="68" width="36" height="6"/>
<rect x="570" y="74" width="48" height="6"/>
<rect x="582" y="80" width="36" height="6"/>
</g>

<rect x="30" y="100" width="620" height="380" fill="#3d2800"/>
<rect x="38" y="108" width="604" height="364" fill="#ffd700"/>
<rect x="46" y="116" width="588" height="348" fill="#b8860b"/>
<rect x="54" y="124" width="572" height="332" fill="#ffd700"/>

<g fill="#3d2800">
<rect x="62" y="132" width="16" height="8"/>
<rect x="602" y="132" width="16" height="8"/>
<rect x="62" y="448" width="16" height="8"/>
<rect x="602" y="448" width="16" height="8"/>
</g>
<g fill="#ffec80">
<rect x="64" y="134" width="6" height="6"/>
<rect x="606" y="134" width="6" height="6"/>
<rect x="64" y="450" width="6" height="6"/>
<rect x="606" y="450" width="6" height="6"/>
</g>

<rect x="80" y="148" width="520" height="284" fill="#7a0a14"/>
<rect x="84" y="152" width="512" height="276" fill="#d4232f"/>

<g fill="#1a0508">
<rect x="168" y="162" width="16" height="8"/>
<rect x="168" y="170" width="8" height="8"/>
<rect x="120" y="186" width="64" height="8"/>
<rect x="120" y="194" width="8" height="64"/>
<rect x="192" y="178" width="8" height="72"/>
<rect x="232" y="178" width="8" height="56"/>
<rect x="224" y="234" width="8" height="8"/>
<rect x="216" y="242" width="8" height="8"/>
<rect x="248" y="210" width="64" height="8"/>
<rect x="352" y="170" width="16" height="8"/>
<rect x="344" y="178" width="16" height="8"/>
<rect x="344" y="186" width="8" height="8"/>
<rect x="336" y="194" width="8" height="8"/>
<rect x="328" y="202" width="8" height="8"/>
<rect x="320" y="210" width="8" height="8"/>
<rect x="312" y="218" width="64" height="8"/>
<rect x="352" y="226" width="8" height="8"/>
<rect x="360" y="234" width="8" height="8"/>
<rect x="424" y="162" width="16" height="8"/>
<rect x="424" y="170" width="16" height="8"/>
<rect x="400" y="178" width="8" height="16"/>
<rect x="416" y="178" width="8" height="16"/>
<rect x="392" y="194" width="8" height="24"/>
<rect x="424" y="194" width="8" height="24"/>
<rect x="384" y="218" width="8" height="16"/>
<rect x="432" y="218" width="8" height="16"/>
<rect x="376" y="234" width="8" height="8"/>
<rect x="432" y="234" width="8" height="8"/>
<rect x="440" y="210" width="64" height="8"/>
<rect x="504" y="170" width="64" height="8"/>
<rect x="560" y="178" width="8" height="8"/>
<rect x="552" y="186" width="8" height="8"/>
<rect x="544" y="194" width="8" height="8"/>
<rect x="536" y="202" width="8" height="8"/>
<rect x="528" y="210" width="8" height="8"/>
<rect x="520" y="218" width="8" height="8"/>
<rect x="512" y="226" width="8" height="8"/>
</g>

<g fill="#ffec00">
<rect x="164" y="158" width="16" height="8"/>
<rect x="164" y="166" width="8" height="8"/>
<rect x="116" y="182" width="64" height="8"/>
<rect x="116" y="190" width="8" height="64"/>
<rect x="188" y="174" width="8" height="72"/>
<rect x="228" y="174" width="8" height="56"/>
<rect x="220" y="230" width="8" height="8"/>
<rect x="212" y="238" width="8" height="8"/>
<rect x="244" y="206" width="64" height="8"/>
<rect x="348" y="166" width="16" height="8"/>
<rect x="340" y="174" width="16" height="8"/>
<rect x="340" y="182" width="8" height="8"/>
<rect x="332" y="190" width="8" height="8"/>
<rect x="324" y="198" width="8" height="8"/>
<rect x="316" y="206" width="8" height="8"/>
<rect x="308" y="214" width="64" height="8"/>
<rect x="348" y="222" width="8" height="8"/>
<rect x="356" y="230" width="8" height="8"/>
<rect x="420" y="158" width="16" height="8"/>
<rect x="420" y="166" width="16" height="8"/>
<rect x="396" y="174" width="8" height="16"/>
<rect x="412" y="174" width="8" height="16"/>
<rect x="388" y="190" width="8" height="24"/>
<rect x="420" y="190" width="8" height="24"/>
<rect x="380" y="214" width="8" height="16"/>
<rect x="428" y="214" width="8" height="16"/>
<rect x="372" y="230" width="8" height="8"/>
<rect x="428" y="230" width="8" height="8"/>
<rect x="436" y="206" width="64" height="8"/>
<rect x="500" y="166" width="64" height="8"/>
<rect x="556" y="174" width="8" height="8"/>
<rect x="548" y="182" width="8" height="8"/>
<rect x="540" y="190" width="8" height="8"/>
<rect x="532" y="198" width="8" height="8"/>
<rect x="524" y="206" width="8" height="8"/>
<rect x="516" y="214" width="8" height="8"/>
<rect x="508" y="222" width="8" height="8"/>
</g>

<rect x="160" y="270" width="80" height="80" fill="#3d3d3d"/>
<rect x="164" y="274" width="72" height="72" fill="#c0c0c0"/>
<rect x="168" y="278" width="64" height="64" fill="#0a0a0a"/>
<rect x="168" y="278" width="64" height="4" fill="#2a2a2a"/>
<g fill="#ff2020">
<rect x="180" y="290" width="40" height="8"/>
<rect x="212" y="298" width="8" height="16"/>
<rect x="204" y="314" width="8" height="8"/>
<rect x="196" y="322" width="8" height="8"/>
<rect x="188" y="330" width="8" height="16"/>
</g>
<rect x="180" y="290" width="40" height="2" fill="#ffaaaa"/>
<rect x="188" y="330" width="2" height="14" fill="#ffaaaa"/>

<rect x="440" y="270" width="80" height="80" fill="#3d3d3d"/>
<rect x="444" y="274" width="72" height="72" fill="#c0c0c0"/>
<rect x="448" y="278" width="64" height="64" fill="#0a0a0a"/>
<rect x="448" y="278" width="64" height="4" fill="#2a2a2a"/>
<g fill="#ff2020">
<rect x="460" y="290" width="40" height="8"/>
<rect x="492" y="298" width="8" height="16"/>
<rect x="484" y="314" width="8" height="8"/>
<rect x="476" y="322" width="8" height="8"/>
<rect x="468" y="330" width="8" height="16"/>
</g>
<rect x="460" y="290" width="40" height="2" fill="#ffaaaa"/>
<rect x="468" y="330" width="2" height="14" fill="#ffaaaa"/>

<g fill="#ffec00">
<rect x="266" y="304" width="6" height="6"/>
<rect x="260" y="310" width="18" height="6"/>
<rect x="266" y="316" width="6" height="6"/>
<rect x="408" y="304" width="6" height="6"/>
<rect x="402" y="310" width="18" height="6"/>
<rect x="408" y="316" width="6" height="6"/>
<rect x="260" y="356" width="6" height="6"/>
<rect x="408" y="356" width="6" height="6"/>
</g>

<g fill="#7a0a14">
<rect x="324" y="270" width="32" height="8"/>
<rect x="316" y="278" width="48" height="8"/>
<rect x="308" y="286" width="64" height="8"/>
<rect x="300" y="294" width="80" height="32"/>
<rect x="308" y="326" width="64" height="8"/>
<rect x="316" y="334" width="48" height="8"/>
<rect x="324" y="342" width="32" height="8"/>
</g>

<g fill="#ff3838">
<rect x="324" y="278" width="32" height="8"/>
<rect x="316" y="286" width="48" height="8"/>
<rect x="308" y="294" width="64" height="24"/>
<rect x="316" y="318" width="48" height="8"/>
<rect x="324" y="326" width="32" height="8"/>
</g>

<g fill="#ff8888">
<rect x="324" y="286" width="8" height="8"/>
<rect x="316" y="294" width="8" height="8"/>
<rect x="324" y="294" width="8" height="8"/>
</g>

<g fill="#ffec00">
<rect x="318" y="306" width="4" height="4"/>
<rect x="314" y="310" width="4" height="4"/>
<rect x="318" y="314" width="4" height="4"/>
<rect x="322" y="310" width="4" height="4"/>
<rect x="328" y="306" width="4" height="12"/>
<rect x="332" y="306" width="4" height="4"/>
<rect x="332" y="314" width="4" height="4"/>
<rect x="346" y="306" width="4" height="4"/>
<rect x="342" y="310" width="4" height="4"/>
<rect x="346" y="314" width="4" height="4"/>
<rect x="350" y="310" width="4" height="4"/>
<rect x="356" y="306" width="4" height="12"/>
<rect x="360" y="306" width="4" height="4"/>
<rect x="360" y="314" width="4" height="4"/>
</g>

<g fill="#ffec00">
<rect x="334" y="262" width="4" height="4"/>
<rect x="338" y="258" width="4" height="4"/>
<rect x="342" y="262" width="4" height="4"/>
<rect x="338" y="266" width="4" height="4"/>
<rect x="282" y="278" width="4" height="4"/>
<rect x="286" y="282" width="4" height="4"/>
<rect x="386" y="282" width="4" height="4"/>
<rect x="390" y="278" width="4" height="4"/>
<rect x="338" y="354" width="4" height="4"/>
</g>

<text x="340" y="395" text-anchor="middle" font-family="'Hiragino Sans', sans-serif" font-size="22" font-weight="900" fill="#ffec00" stroke="#1a0508" stroke-width="4" paint-order="stroke">★ ジャグラー専門店 ★</text>

<g fill="#fff">
<rect x="146" y="416" width="12" height="4"/>
<rect x="148" y="412" width="8" height="12"/>
<rect x="522" y="416" width="12" height="4"/>
<rect x="524" y="412" width="8" height="12"/>
</g>

<rect y="480" width="680" height="6" fill="#3d2858"/>
<rect y="486" width="680" height="2" fill="#1a0d3d"/>

<rect x="280" y="492" width="120" height="68" fill="#1a1438"/>
<rect x="284" y="496" width="56" height="64" fill="#5a4878"/>
<rect x="340" y="496" width="56" height="64" fill="#5a4878"/>
<rect x="284" y="496" width="56" height="3" fill="#8a78a8"/>
<rect x="340" y="496" width="56" height="3" fill="#8a78a8"/>
<rect x="338" y="496" width="4" height="64" fill="#1a1438"/>
<rect x="294" y="524" width="6" height="10" fill="#ffec00"/>
<rect x="380" y="524" width="6" height="10" fill="#ffec00"/>

<rect x="60" y="492" width="40" height="80" fill="#7a0a14"/>
<rect x="64" y="496" width="32" height="72" fill="#d4232f"/>
<rect x="68" y="500" width="24" height="2" fill="#ffec00"/>
<rect x="68" y="510" width="24" height="2" fill="#ffec00"/>
<rect x="68" y="520" width="24" height="2" fill="#ffec00"/>
<rect x="68" y="530" width="24" height="2" fill="#ffec00"/>
<rect x="68" y="540" width="24" height="2" fill="#ffec00"/>
<rect x="68" y="550" width="24" height="2" fill="#ffec00"/>

<rect x="580" y="492" width="40" height="80" fill="#7a0a14"/>
<rect x="584" y="496" width="32" height="72" fill="#d4232f"/>
<rect x="588" y="500" width="24" height="2" fill="#ffec00"/>
<rect x="588" y="510" width="24" height="2" fill="#ffec00"/>
<rect x="588" y="520" width="24" height="2" fill="#ffec00"/>
<rect x="588" y="530" width="24" height="2" fill="#ffec00"/>
<rect x="588" y="540" width="24" height="2" fill="#ffec00"/>
<rect x="588" y="550" width="24" height="2" fill="#ffec00"/>

</svg>